<svg version="1" xmlns="http://www.w3.org/2000/svg" width="576" height="576" viewBox="0 0 432.000000 432.000000"><path d="M212.6 101.5c-.3.9-.6 2.3-.6 3.2 0 .8-1.4 4.8-3.1 8.9-2.5 5.9-3.5 7.4-5.2 7.4-4.9 0-19.5 4.3-27.3 7.9-21.6 10.2-36.1 24.4-46.5 45.6-6.8 14-9.2 24.5-9.4 42-.2 12.1-.5 14.7-2.5 18.9-2.8 6.1-2.2 13.7 1.4 19.4 3 4.7 9.8 11 12.9 11.7 1.4.4 4.4 3.3 7 6.9 7.2 9.8 22.8 23.4 30.1 26.2 5 1.9-2.5 8.5-12.3 10.9-11.4 2.8-26.9.5-33.5-4.9-2.3-1.9-3-3.4-3.4-7.5-.6-6.4 1.2-9.3 7.2-11.6 3.8-1.5 4.8-1.5 7.3-.3 3.9 1.8 4.3 6.1.9 8.3-2.3 1.6-2.7 1.6-4.1.1-2.9-2.8-5.2-1.3-4 2.5 2.3 7 15.5 1.4 15.5-6.6 0-7.8-8.7-11.6-18-7.9-5.3 2.1-8 6.1-8.7 12.8-1 10.2 4.9 16.2 18.7 19.1 13.7 2.9 29.2.8 35.2-4.7.8-.7 2.6-2.3 4-3.6l2.6-2.4 9.5 3.1c9.3 3 22 5.1 30.4 5.1 2.8 0 4.2.4 4.1 1.2-.7 2.8 12.8 3.2 17.7.5 1.3-.7 9.4-1.1 22-1.2 19.3 0 20-.1 20-2 0-1.8-.6-2-6.5-1.7-7.6.4-9.6-.7-10.4-5.8-.6-3.4-.4-3.6 5.2-7 3.1-1.9 10.2-8.1 15.8-13.6 6.2-6.3 11.4-10.6 13.5-11.3 5.1-1.7 13-8.1 15.2-12.4 1.1-2.2 2.2-6.7 2.5-10.7.4-5.9.1-7.5-2.2-12.3-2.5-5.1-2.7-6.1-2.1-13.4 1.7-19.4-4.5-42.3-16.4-60.3-14.9-22.5-42.5-38.9-69.5-41.2-3.2-.3-3.3-.5-6.5-13.3-1.4-5.6-2.2-7.1-3.8-7.3-1.2-.2-2.3.4-2.7 1.3zm.9 47.5c2.1 5.5 3.6 10.3 3.3 10.5-1 1-19.8 1.8-19.8.8 0-.6 1.5-5.3 3.4-10.4 3.3-9.2 4-10 8.7-10.8.4-.1 2.3 4.4 4.4 9.9zm34.2-3c25.9 11.8 43 36.6 45 65.8l.6 8.5-2.4-.8c-8.5-2.7-43.4-2.7-60.6.1-10.9 1.8-13.8 4.1-4.7 3.7 11.3-.5 14.7-.4 15.8.7 1.1 1.1 2.8 29.2 3 51l.1 12.5-5.2 1.7c-16.5 5.5-35.9 4.7-52.9-2.2-5-2.1-5.3-2.4-6.4-7.1-1.1-4.6-5.6-12-8.9-14.7-.9-.7-6.3-3.5-12-6.3l-10.3-5.1-2.8-6.2c-3-6.6-5.4-15-6.5-22.8-.6-4.5-.5-4.8 2.1-5.4 5.3-1.3 18.3 2.5 23.4 6.8 4 3.4 7 8.2 7 11.2 0 6.3-4.9 9.6-9.5 6.2-1.8-1.3-1.7-2.5.7-5.8 1.8-2.5.2-3.3-2.7-1.4-3.3 2.2-3.5 7.8-.3 10 3.4 2.4 9 2 12.2-.9 2.2-2 2.6-3.2 2.6-8 0-5.2-.3-5.9-4.5-10.4-6.5-6.9-14.8-10.5-24.4-10.6h-7.3l.6-7c2.6-27.8 19.8-52.1 44.9-63.5 6.4-2.9 14.6-5.4 15.3-4.7.2.2-.8 3.7-2.2 7.8-1.5 4.1-3.5 9.9-4.5 12.9-3.5 10-9.3 23.4-11.7 27.3-1.9 2.9-3.6 4-7.5 5.2-2.8.8-5.7 1.5-6.4 1.5-1.5 0-1.8 1.6-.4 2.4.5.4 3.2.1 5.9-.4 7.3-1.6 9.8-1.9 19.5-1.9 7.8-.1 8.8-.3 8.5-1.8-.2-1.4-1.3-1.7-5.5-1.4-5.5.3-9.3-1.1-9.3-3.4 0-1.1 8.7-23.9 9.6-25.3.2-.2 5.5-.6 11.8-.9l11.6-.5 2.4 5.3c3.4 8 6.6 17.5 6.8 21 .3 3.6-.4 4.2-8.4 6.4-3.7 1-5.8 2.1-5.8 3 0 1.8 0 1.8 8-.2 4.5-1.1 11.9-1.7 24-1.9 9.6-.1 18.1-.3 18.8-.3.8-.1 1.2-.9 1-1.9-.3-1.4-1.2-1.6-6-1.4-4.5.3-6.6-.1-9.7-1.9-4.8-2.7-5.6-4.2-11.6-23.4-2.5-8.3-5.5-17.4-6.6-20.3-1-3-1.9-5.7-1.9-6.2 0-1.2 10.5 1.8 17.7 5zm30 76.6c2.6.9 6.8 3 9.2 4.6 4.2 2.9 4.3 3.2 3.7 7.1-1.5 9.5-11.5 27.7-18.9 34.5-2 1.9-3.1 2.2-6 1.7-2.1-.4-3.7-1.4-3.9-2.3-.1-1-.3-9.4-.3-18.7 0-15.7.2-17.3 2.2-21.2 2.3-4.2 5.7-7.3 8-7.3.7 0 3.4.7 6 1.6zM266 274.5c0 .2-.9.9-2 1.5-1.6.9-2 .8-2-.5 0-.8.9-1.5 2-1.5s2 .2 2 .5z"/></svg>